<svg width="48" height="48" viewBox="0 0 48 48" fill="none" xmlns="http://www.w3.org/2000/svg">
<g clip-path="url(#clip0_370_48)">
<path d="M0 24C0 10.7452 10.7452 0 24 0V0C37.2548 0 48 10.7452 48 24V24C48 37.2548 37.2548 48 24 48V48C10.7452 48 0 37.2548 0 24V24Z" fill="white"/>
<path d="M6.44042 21.7507C5.09261 18.7235 6.45405 15.1769 9.48127 13.829L38.7147 0.813473C39.7238 0.364204 40.906 0.818016 41.3553 1.82709L42.9822 5.48127C43.4315 6.49035 42.9777 7.67257 41.9686 8.12184L16.3893 19.5105C15.3803 19.9597 14.9265 21.142 15.3757 22.151L17.2646 26.3935C17.7139 27.4026 18.8961 27.8564 19.9052 27.4071L49.3315 14.3057C50.3405 13.8564 51.5227 14.3102 51.972 15.3193L53.599 18.9735C54.0482 19.9826 53.5944 21.1648 52.5853 21.6141L23.1591 34.7155C22.15 35.1647 21.6962 36.347 22.1454 37.356L28.3913 51.3845C28.8406 52.3936 28.3868 53.5758 27.3777 54.025L23.7235 55.652C22.7144 56.1013 21.5322 55.6474 21.0829 54.6384L14.8371 40.6099C14.3878 39.6009 13.2056 39.147 12.1965 39.5963L5.08098 42.7644C4.07191 43.2136 2.88969 42.7598 2.44042 41.7507L0.813473 38.0966C0.364205 37.0875 0.818017 35.9053 1.82709 35.456L8.94262 32.288C9.95169 31.8387 10.4055 30.6565 9.95624 29.6474L6.44042 21.7507Z" fill="#0A0A0A"/>
</g>
<defs>
<clipPath id="clip0_370_48">
<path d="M0 24C0 10.7452 10.7452 0 24 0V0C37.2548 0 48 10.7452 48 24V24C48 37.2548 37.2548 48 24 48V48C10.7452 48 0 37.2548 0 24V24Z" fill="white"/>
</clipPath>
</defs>
</svg>
